<mxfile host="Electron" agent="Mozilla/5.0 (Windows NT 10.0; Win64; x64) AppleWebKit/537.36 (KHTML, like Gecko) draw.io/26.0.9 Chrome/128.0.6613.186 Electron/32.2.5 Safari/537.36" version="26.0.9">
  <diagram name="Página-1" id="1nIQ0Vbe9oIBW9aB5L_Z">
    <mxGraphModel dx="1036" dy="614" grid="1" gridSize="10" guides="1" tooltips="1" connect="1" arrows="1" fold="1" page="1" pageScale="1" pageWidth="827" pageHeight="1169" math="0" shadow="0">
      <root>
        <mxCell id="0" />
        <mxCell id="1" parent="0" />
        <mxCell id="Qb6JmwAzc8mW8-H-RW5B-7" style="edgeStyle=orthogonalEdgeStyle;rounded=0;orthogonalLoop=1;jettySize=auto;html=1;entryX=0;entryY=0.5;entryDx=0;entryDy=0;" edge="1" parent="1" source="Qb6JmwAzc8mW8-H-RW5B-1" target="Qb6JmwAzc8mW8-H-RW5B-4">
          <mxGeometry relative="1" as="geometry">
            <Array as="points">
              <mxPoint x="140" y="350" />
              <mxPoint x="60" y="350" />
              <mxPoint x="60" y="435" />
            </Array>
          </mxGeometry>
        </mxCell>
        <mxCell id="Qb6JmwAzc8mW8-H-RW5B-10" value="" style="edgeStyle=orthogonalEdgeStyle;rounded=0;orthogonalLoop=1;jettySize=auto;html=1;" edge="1" parent="1" source="Qb6JmwAzc8mW8-H-RW5B-1" target="Qb6JmwAzc8mW8-H-RW5B-9">
          <mxGeometry relative="1" as="geometry" />
        </mxCell>
        <mxCell id="Qb6JmwAzc8mW8-H-RW5B-34" style="edgeStyle=orthogonalEdgeStyle;rounded=0;orthogonalLoop=1;jettySize=auto;html=1;entryX=0;entryY=0.5;entryDx=0;entryDy=0;curved=0;jumpStyle=none;" edge="1" parent="1" source="Qb6JmwAzc8mW8-H-RW5B-1" target="Qb6JmwAzc8mW8-H-RW5B-3">
          <mxGeometry relative="1" as="geometry" />
        </mxCell>
        <mxCell id="Qb6JmwAzc8mW8-H-RW5B-1" value="&lt;font style=&quot;font-size: 14px;&quot;&gt;funcionario&lt;/font&gt;&amp;nbsp;" style="rounded=0;whiteSpace=wrap;html=1;" vertex="1" parent="1">
          <mxGeometry x="80" y="260" width="120" height="60" as="geometry" />
        </mxCell>
        <mxCell id="Qb6JmwAzc8mW8-H-RW5B-12" value="" style="edgeStyle=orthogonalEdgeStyle;rounded=0;orthogonalLoop=1;jettySize=auto;html=1;entryX=1;entryY=0.5;entryDx=0;entryDy=0;" edge="1" parent="1" source="Qb6JmwAzc8mW8-H-RW5B-2" target="Qb6JmwAzc8mW8-H-RW5B-9">
          <mxGeometry relative="1" as="geometry">
            <mxPoint x="420" y="290" as="targetPoint" />
          </mxGeometry>
        </mxCell>
        <mxCell id="Qb6JmwAzc8mW8-H-RW5B-2" value="&lt;font style=&quot;font-size: 14px;&quot;&gt;funções&lt;/font&gt;&amp;nbsp;" style="rounded=0;whiteSpace=wrap;html=1;" vertex="1" parent="1">
          <mxGeometry x="480" y="260" width="120" height="60" as="geometry" />
        </mxCell>
        <mxCell id="Qb6JmwAzc8mW8-H-RW5B-3" value="&lt;u&gt;condigo&lt;/u&gt;" style="text;html=1;align=center;verticalAlign=middle;whiteSpace=wrap;rounded=0;" vertex="1" parent="1">
          <mxGeometry x="80" y="380" width="60" height="30" as="geometry" />
        </mxCell>
        <mxCell id="Qb6JmwAzc8mW8-H-RW5B-4" value="nome&lt;span style=&quot;color: rgba(0, 0, 0, 0); font-family: monospace; font-size: 0px; text-align: start; text-wrap: nowrap;&quot;&gt;%3CmxGraphModel%3E%3Croot%3E%3CmxCell%20id%3D%220%22%2F%3E%3CmxCell%20id%3D%221%22%20parent%3D%220%22%2F%3E%3CmxCell%20id%3D%222%22%20value%3D%22%26lt%3Bu%26gt%3Bcondigo%26lt%3B%2Fu%26gt%3B%22%20style%3D%22text%3Bhtml%3D1%3Balign%3Dcenter%3BverticalAlign%3Dmiddle%3BwhiteSpace%3Dwrap%3Brounded%3D0%3B%22%20vertex%3D%221%22%20parent%3D%221%22%3E%3CmxGeometry%20x%3D%2280%22%20y%3D%22380%22%20width%3D%2260%22%20height%3D%2230%22%20as%3D%22geometry%22%2F%3E%3C%2FmxCell%3E%3C%2Froot%3E%3C%2FmxGraphModel%3E&lt;/span&gt;" style="text;html=1;align=center;verticalAlign=middle;whiteSpace=wrap;rounded=0;" vertex="1" parent="1">
          <mxGeometry x="80" y="420" width="60" height="30" as="geometry" />
        </mxCell>
        <mxCell id="Qb6JmwAzc8mW8-H-RW5B-20" value="" style="edgeStyle=orthogonalEdgeStyle;rounded=0;orthogonalLoop=1;jettySize=auto;html=1;" edge="1" parent="1" source="Qb6JmwAzc8mW8-H-RW5B-9" target="Qb6JmwAzc8mW8-H-RW5B-19">
          <mxGeometry relative="1" as="geometry" />
        </mxCell>
        <mxCell id="Qb6JmwAzc8mW8-H-RW5B-9" value="fusão" style="rhombus;whiteSpace=wrap;html=1;rounded=0;" vertex="1" parent="1">
          <mxGeometry x="300" y="250" width="80" height="80" as="geometry" />
        </mxCell>
        <mxCell id="Qb6JmwAzc8mW8-H-RW5B-13" value="1:n" style="text;html=1;align=center;verticalAlign=middle;resizable=0;points=[];autosize=1;strokeColor=none;fillColor=none;" vertex="1" parent="1">
          <mxGeometry x="210" y="258" width="40" height="30" as="geometry" />
        </mxCell>
        <mxCell id="Qb6JmwAzc8mW8-H-RW5B-14" value="1;n" style="text;html=1;align=center;verticalAlign=middle;resizable=0;points=[];autosize=1;strokeColor=none;fillColor=none;" vertex="1" parent="1">
          <mxGeometry x="410" y="258" width="40" height="30" as="geometry" />
        </mxCell>
        <mxCell id="Qb6JmwAzc8mW8-H-RW5B-15" value="&lt;u&gt;codigo&lt;/u&gt;" style="text;html=1;align=center;verticalAlign=middle;resizable=0;points=[];autosize=1;strokeColor=none;fillColor=none;" vertex="1" parent="1">
          <mxGeometry x="530" y="370" width="60" height="30" as="geometry" />
        </mxCell>
        <mxCell id="Qb6JmwAzc8mW8-H-RW5B-16" value="nome" style="text;html=1;align=center;verticalAlign=middle;resizable=0;points=[];autosize=1;strokeColor=none;fillColor=none;" vertex="1" parent="1">
          <mxGeometry x="530" y="410" width="50" height="30" as="geometry" />
        </mxCell>
        <mxCell id="Qb6JmwAzc8mW8-H-RW5B-17" style="edgeStyle=orthogonalEdgeStyle;rounded=0;orthogonalLoop=1;jettySize=auto;html=1;entryX=1.011;entryY=0.47;entryDx=0;entryDy=0;entryPerimeter=0;" edge="1" parent="1" source="Qb6JmwAzc8mW8-H-RW5B-2" target="Qb6JmwAzc8mW8-H-RW5B-15">
          <mxGeometry relative="1" as="geometry">
            <Array as="points">
              <mxPoint x="540" y="350" />
              <mxPoint x="620" y="350" />
              <mxPoint x="620" y="384" />
            </Array>
          </mxGeometry>
        </mxCell>
        <mxCell id="Qb6JmwAzc8mW8-H-RW5B-18" style="edgeStyle=orthogonalEdgeStyle;rounded=0;orthogonalLoop=1;jettySize=auto;html=1;entryX=1;entryY=0.547;entryDx=0;entryDy=0;entryPerimeter=0;" edge="1" parent="1" source="Qb6JmwAzc8mW8-H-RW5B-2" target="Qb6JmwAzc8mW8-H-RW5B-16">
          <mxGeometry relative="1" as="geometry">
            <Array as="points">
              <mxPoint x="540" y="350" />
              <mxPoint x="620" y="350" />
              <mxPoint x="620" y="426" />
            </Array>
          </mxGeometry>
        </mxCell>
        <mxCell id="Qb6JmwAzc8mW8-H-RW5B-19" value="funcao_funcionario&amp;nbsp;&lt;div&gt;&lt;br&gt;&lt;/div&gt;" style="whiteSpace=wrap;html=1;rounded=0;" vertex="1" parent="1">
          <mxGeometry x="280" y="420" width="120" height="50" as="geometry" />
        </mxCell>
        <mxCell id="Qb6JmwAzc8mW8-H-RW5B-21" value="&lt;u&gt;codigo&lt;/u&gt;" style="text;html=1;align=center;verticalAlign=middle;resizable=0;points=[];autosize=1;strokeColor=none;fillColor=none;" vertex="1" parent="1">
          <mxGeometry x="374" y="530" width="60" height="30" as="geometry" />
        </mxCell>
        <mxCell id="Qb6JmwAzc8mW8-H-RW5B-25" value="codFun" style="text;html=1;align=center;verticalAlign=middle;resizable=0;points=[];autosize=1;strokeColor=none;fillColor=none;" vertex="1" parent="1">
          <mxGeometry x="374" y="569" width="60" height="30" as="geometry" />
        </mxCell>
        <mxCell id="Qb6JmwAzc8mW8-H-RW5B-26" value="codFunção" style="text;html=1;align=center;verticalAlign=middle;resizable=0;points=[];autosize=1;strokeColor=none;fillColor=none;" vertex="1" parent="1">
          <mxGeometry x="374" y="618" width="80" height="30" as="geometry" />
        </mxCell>
        <mxCell id="Qb6JmwAzc8mW8-H-RW5B-27" style="edgeStyle=orthogonalEdgeStyle;rounded=0;orthogonalLoop=1;jettySize=auto;html=1;entryX=0.006;entryY=0.481;entryDx=0;entryDy=0;entryPerimeter=0;" edge="1" parent="1" source="Qb6JmwAzc8mW8-H-RW5B-19" target="Qb6JmwAzc8mW8-H-RW5B-21">
          <mxGeometry relative="1" as="geometry">
            <Array as="points">
              <mxPoint x="340" y="544" />
            </Array>
          </mxGeometry>
        </mxCell>
        <mxCell id="Qb6JmwAzc8mW8-H-RW5B-28" style="edgeStyle=orthogonalEdgeStyle;rounded=0;orthogonalLoop=1;jettySize=auto;html=1;entryX=0;entryY=0.636;entryDx=0;entryDy=0;entryPerimeter=0;" edge="1" parent="1" source="Qb6JmwAzc8mW8-H-RW5B-19" target="Qb6JmwAzc8mW8-H-RW5B-25">
          <mxGeometry relative="1" as="geometry">
            <Array as="points">
              <mxPoint x="340" y="588" />
            </Array>
          </mxGeometry>
        </mxCell>
        <mxCell id="Qb6JmwAzc8mW8-H-RW5B-29" style="edgeStyle=orthogonalEdgeStyle;rounded=0;orthogonalLoop=1;jettySize=auto;html=1;entryX=-0.004;entryY=0.592;entryDx=0;entryDy=0;entryPerimeter=0;" edge="1" parent="1" source="Qb6JmwAzc8mW8-H-RW5B-19" target="Qb6JmwAzc8mW8-H-RW5B-26">
          <mxGeometry relative="1" as="geometry">
            <Array as="points">
              <mxPoint x="340" y="636" />
            </Array>
          </mxGeometry>
        </mxCell>
      </root>
    </mxGraphModel>
  </diagram>
</mxfile>
